<?xml version="1.0" encoding="utf-8"?>
<!-- Generator: Adobe Illustrator 19.0.0, SVG Export Plug-In . SVG Version: 6.00 Build 0)  -->
<svg version="1.1" id="Layer_1" xmlns="http://www.w3.org/2000/svg" xmlns:xlink="http://www.w3.org/1999/xlink" x="0px" y="0px"
	 viewBox="0 0 240 100" style="enable-background:new 0 0 240 100;" xml:space="preserve">
<style type="text/css">
	.alcon-logo-st0{fill:#067BC0;}
	.alcon-logo-st1{fill-rule:evenodd;clip-rule:evenodd;fill:#7C868C;}
	.alcon-logo-st2{fill:#7C868C;}
</style>
<g>
	<path id="XMLID_70_" class="alcon-logo-st0" d="M164.4,77.6h28.9c0-24.8,19.7-44.9,44.1-44.9V3.3C196.8,3.3,164.4,36.3,164.4,77.6"/>
	<path class="alcon-logo-st1" d="M19.3,63.4c-3.4,0-5.8,1.1-5.8,3.6c0,1.8,1.6,3,3.9,3c3.5,0,5.8-3.2,5.9-6.4C22,63.5,20.7,63.4,19.3,63.4
		 M22.9,75c-2.1,2.2-4.8,3.3-8.2,3.3c-6.1,0-12-3.1-12-10.5c0-9.3,9-11.3,16.2-11.3c1.1,0,2.3,0.1,3.4,0.2c-0.6-2-3.1-2.8-6-2.8
		c-4.8,0-8,1.4-9.9,2.4v-8.8c4.4-1.8,8.1-2.5,12.7-2.5c7.7,0,15,3.5,15,13.4v19.2H22.9L22.9,75z"/>
	<rect id="XMLID_67_" x="37.5" y="32.6" class="alcon-logo-st2" width="12.3" height="45"/>
	<path id="XMLID_66_" class="alcon-logo-st2" d="M65.3,61.8c0,4,3.3,6.7,7.2,6.7c2.8,0,5-0.6,7.6-1.6l0,9.7c-3.1,1-6.1,1.6-9.3,1.6
		c-10.1,0-18.1-6.1-18.1-16.6c0-10.6,8-16.6,18.1-16.6c3.2,0,6.3,0.6,9.3,1.6l0,9.7c-2.6-0.9-4.8-1.6-7.6-1.6
		c-3.9,0-7.2,2.7-7.2,6.7V61.8z"/>
	<path class="alcon-logo-st1" d="M95.2,61.7c0,4.2,1.7,7.2,5.4,7.2c3.7,0,5.4-3,5.4-7.2c0-4.2-1.7-7.2-5.4-7.2C96.9,54.4,95.2,57.4,95.2,61.7
		 M118.6,61.7c0,10.6-8,16.6-18.1,16.6c-10.1,0-18.1-6-18.1-16.6c0-10.6,8-16.7,18.1-16.7C110.6,45,118.6,51,118.6,61.7"/>
	<path id="XMLID_63_" class="alcon-logo-st2" d="M132.9,49c2-2.7,5.7-4,9.6-4c8.7,0,12.2,6.4,12.2,13v19.6h-12.3V62.1c0-5.3-1.7-6.3-3.5-6.3
		c-3.2,0-5.1,2-5.1,8.1v13.7h-12.3v-32h11.4V49z"/>
	<path class="alcon-logo-st2" d="M7.2,90c-0.6-0.2-1-0.3-1-0.7c0-0.6,0.7-0.6,0.9-0.6c0.6,0,0.9,0.1,1.5,0.3l0.1,0l0.1-1.4l-0.2,0
		c-0.5-0.1-1-0.2-1.7-0.2c-1.2,0-2.6,0.5-2.6,2.1c0,1.4,1,1.7,1.8,1.9c0.6,0.2,1.1,0.3,1.1,0.8c0,0.7-0.9,0.7-1,0.7v0.1
		c-0.5,0-1.1-0.2-1.6-0.4l0,0l-0.1,0l-0.1,0l-0.1,1.4l0.1,0c0.7,0.2,1.3,0.3,1.9,0.3c1.3,0,2.7-0.6,2.7-2.2C9.1,90.6,8,90.2,7.2,90z
		 M13.6,87.3c-0.8,0-1.5,0.3-1.9,0.9v-0.8H9.9v9.3h1.8v-3.3c0.6,0.7,1.2,0.8,1.8,0.8c0.8,0,2.8-0.3,2.8-3.5
		C16.3,88.5,15.3,87.3,13.6,87.3z M13.1,92.7c-1,0-1.4-1.1-1.4-2c0-1,0.4-2,1.4-2c1.2,0,1.3,1.7,1.3,2
		C14.4,91.1,14.3,92.7,13.1,92.7z M19.9,87.3c-1.8,0-3,1.4-3,3.5c0,2.1,1.3,3.4,3.4,3.4c0.9,0,1.6-0.2,2.2-0.5l0,0v-1.5l-0.1,0.1
		c-0.5,0.3-1.2,0.6-2.1,0.6c-1,0-1.6-0.6-1.7-1.5H23v-0.1C23,88.5,22,87.3,19.9,87.3z M18.6,90c0.1-0.9,0.6-1.4,1.4-1.4
		c1,0,1.2,0.8,1.3,1.4H18.6z M28.4,92.4c-0.3,0.1-0.8,0.3-1.2,0.3c-1,0-1.6-0.8-1.6-2c0-1.2,0.6-2,1.6-2c0.5,0,0.8,0.1,1.1,0.2
		l0.1,0l0.2-1.5l-0.1,0c-0.5-0.2-1-0.2-1.6-0.2c-1.9,0-3.1,1.4-3.1,3.4c0,2.2,1.2,3.5,3.2,3.5c0.7,0,1.2-0.1,1.7-0.2l0.1,0l-0.1-1.6
		L28.4,92.4z M29.6,94h1.8v-6.6h-1.8V94z M29.6,86.4h1.8v-1.8h-1.8V86.4z M38.1,92.5c0-0.5,0-0.9,0-1.6v-0.8c0-2-0.8-2.8-2.8-2.8
		c-0.7,0-1.6,0.2-2.2,0.5l0,0l0.1,1.6l0.1-0.1c0.6-0.4,1.3-0.7,1.9-0.7c0.9,0,1.3,0.3,1.4,1.2h-0.8c-0.9,0-1.6,0.1-2.2,0.4
		c-0.7,0.4-1.1,1-1.1,1.9c0,1.3,1.2,2,2.3,2c0.8,0,1.5-0.4,1.9-1c0,0.2,0,0.5,0.1,0.8l0,0.1h1.6l0-0.1C38.1,93.4,38.1,93,38.1,92.5z
		 M36.1,92.3c-0.3,0.4-0.6,0.5-1.1,0.5c-0.3,0-1-0.1-1-0.7c0-0.7,0.6-1,1.8-1h0.6C36.4,91.6,36.3,92,36.1,92.3z M39.3,94h1.8v-9.6
		h-1.8V94z M42.4,94h1.8v-6.6h-1.8V94z M42.4,86.4h1.8v-1.8h-1.8V86.4z M48.1,90c-0.6-0.2-1-0.3-1-0.7c0-0.6,0.7-0.6,0.9-0.6
		c0.6,0,0.9,0.1,1.5,0.3l0.1,0l0.1-1.4l-0.2,0c-0.5-0.1-1-0.2-1.7-0.2c-1.2,0-2.6,0.5-2.6,2.1c0,1.4,1,1.7,1.8,1.9
		c0.6,0.2,1.1,0.3,1.1,0.8c0,0.7-0.9,0.7-1,0.7c-0.5,0-1-0.1-1.6-0.4l-0.1-0.1l-0.1,1.6l0.1,0c0.7,0.2,1.3,0.3,1.9,0.3
		c1.3,0,2.7-0.6,2.7-2.2C50,90.6,48.9,90.2,48.1,90z M55,92.6c-0.2,0.1-0.4,0.2-0.7,0.2c-0.5,0-0.7-0.3-0.7-1v-2.9H55v-1.4h-1.5
		v-1.9l-1.8,0.6v1.3h-1.2v1.4h1.2V92c0,1.4,0.8,2.2,2.1,2.2c0.5,0,0.9,0,1.2-0.2l0.1,0l-0.1-1.5L55,92.6z M62.9,87.3
		c-0.8,0-1.4,0.3-1.8,0.9v-3.7h-1.8V94H61v-0.7c0.6,0.7,1.4,0.8,1.9,0.8c1.7,0,2.7-1.3,2.7-3.5C65.6,88.5,64.6,87.3,62.9,87.3z
		 M62.4,92.7c-1,0-1.4-1.1-1.4-2c0-1,0.4-2,1.4-2c1.2,0,1.3,1.7,1.3,2C63.8,91.1,63.7,92.7,62.4,92.7z M69.8,87.3
		c-0.8,0-1.4,0.7-1.7,1.3v-1.1h-1.6V94h1.8v-2.5c0-0.9,0-2.6,1.3-2.6c0.3,0,0.6,0.1,0.7,0.1l0.1,0.1v-1.9l-0.1,0
		C70.1,87.3,69.9,87.3,69.8,87.3z M76.2,92.5c0-0.5,0-0.9,0-1.6v-0.8c0-2-0.8-2.8-2.8-2.8c-0.7,0-1.6,0.2-2.2,0.5l0,0l0.1,1.6
		l0.1-0.1c0.6-0.4,1.3-0.7,1.9-0.7c0.9,0,1.3,0.3,1.4,1.2h-0.8c-0.9,0-1.6,0.1-2.2,0.4c-0.7,0.4-1.1,1-1.1,1.9c0,1.3,1.2,2,2.3,2
		c0.8,0,1.5-0.4,1.9-1c0,0.2,0,0.5,0.1,0.8l0,0.1h1.6l0-0.1C76.2,93.4,76.2,93,76.2,92.5z M74.1,92.3c-0.3,0.4-0.6,0.5-1.1,0.5
		c-0.3,0-1-0.1-1-0.7c0-0.7,0.6-1,1.8-1h0.6C74.5,91.6,74.4,92,74.1,92.3z M83,87.4h-2.1L79,89.9v-5.4h-1.8V94H79v-3l2,3h2.3
		l-2.7-3.7L83,87.4z M86,87.3c-1.8,0-3,1.4-3,3.5c0,2.1,1.3,3.4,3.4,3.4c0.9,0,1.6-0.2,2.2-0.5l0,0v-1.5l-0.1,0.1
		c-0.5,0.3-1.2,0.6-2.1,0.6c-1,0-1.6-0.6-1.7-1.5h4.4v-0.1C89.1,88.5,88.2,87.3,86,87.3z M84.8,90c0.1-0.9,0.6-1.4,1.4-1.4
		c1,0,1.2,0.8,1.3,1.4H84.8z M92.7,90c-0.6-0.2-1-0.3-1-0.7c0-0.6,0.7-0.6,0.9-0.6c0.6,0,0.9,0.1,1.5,0.3l0.1,0l0.1-1.4l-0.2,0
		c-0.5-0.1-1-0.2-1.7-0.2c-1.2,0-2.6,0.5-2.6,2.1c0,1.4,1,1.7,1.8,1.9c0.6,0.2,1.1,0.3,1.1,0.8c0,0.7-0.9,0.7-1,0.7
		c-0.5,0-1-0.1-1.6-0.4L90,92.3l-0.1,1.6l0.1,0c0.7,0.2,1.3,0.3,1.9,0.3c1.3,0,2.7-0.6,2.7-2.2C94.6,90.6,93.5,90.2,92.7,90z
		 M106.8,89.2L106.8,89.2l-1.7-0.1l0,0.1c0,0.6-0.1,1.3-0.5,1.8l-1.5-1.6c0.9-0.5,1.6-1.1,1.6-2.3c0-1.5-1.4-2.1-2.6-2.1
		c-1.3,0-2.7,0.7-2.7,2.1c0,1,0.5,1.5,1.1,2.1c-1.2,0.6-1.8,1.3-1.8,2.4c0,1.6,1.3,2.6,3.1,2.6c0.9,0,1.8-0.3,2.3-0.9L105,94h2.3
		l-1.6-1.8C106.3,91.4,106.7,90.4,106.8,89.2z M102.3,86.4c0.4,0,0.9,0.2,0.9,0.8c0,0.5-0.6,0.9-1,1.2c0,0-0.1-0.1-0.1-0.1
		c-0.3-0.3-0.7-0.7-0.7-1.1C101.4,86.6,101.8,86.4,102.3,86.4z M102.1,92.7c-0.8,0-1.4-0.5-1.4-1.2c0-0.5,0.3-0.9,1-1.3l1.8,2.1
		C103.2,92.6,102.7,92.7,102.1,92.7z M115.4,92.4c-0.3,0.1-0.8,0.3-1.2,0.3c-1,0-1.6-0.8-1.6-2c0-1.2,0.6-2,1.6-2
		c0.5,0,0.8,0.1,1.1,0.2l0.1,0l0.2-1.5l-0.1,0c-0.5-0.2-1-0.2-1.6-0.2c-1.9,0-3.1,1.4-3.1,3.4c0,2.2,1.2,3.5,3.2,3.5
		c0.7,0,1.2-0.1,1.7-0.2l0.1,0L115.4,92.4L115.4,92.4z M116.6,94h1.8v-9.6h-1.8V94z M123.7,90.7c0,0.5-0.1,2.1-1.4,2.1
		c-0.9,0-1-0.8-1-1.8v-3.5h-1.8v4.2c0,1.7,0.8,2.6,2.2,2.6c0.8,0,1.5-0.3,2-0.9V94h1.7v-6.6h-1.8V90.7z M130.7,92.6
		c-0.2,0.1-0.4,0.2-0.7,0.2c-0.5,0-0.7-0.3-0.7-1v-2.9h1.5v-1.4h-1.5v-1.9l-1.8,0.6v1.3h-1.2v1.4h1.2V92c0,1.4,0.8,2.2,2.1,2.2
		c0.5,0,0.9,0,1.2-0.2l0.1,0l-0.1-1.5L130.7,92.6z M136,92.4c-0.3,0.1-0.8,0.3-1.2,0.3c-1,0-1.6-0.8-1.6-2c0-1.2,0.6-2,1.6-2
		c0.5,0,0.8,0.1,1.1,0.2l0.1,0l0.2-1.5l-0.1,0c-0.5-0.2-1-0.2-1.6-0.2c-1.9,0-3.1,1.4-3.1,3.4c0,2.2,1.2,3.5,3.2,3.5
		c0.7,0,1.2-0.1,1.7-0.2l0.1,0l-0.1-1.6L136,92.4z M140.8,87.3c-0.8,0-1.5,0.3-1.9,0.9v-3.7h-1.8V94h1.8v-3.2c0-0.5,0.1-2.1,1.4-2.1
		c0.9,0,1,0.8,1,1.8V94h1.8v-4.2C143.1,88.2,142.3,87.3,140.8,87.3z M146.8,87.3c-1.8,0-3,1.4-3,3.5c0,2.1,1.3,3.4,3.4,3.4
		c0.9,0,1.6-0.2,2.2-0.5l0,0v-1.5l-0.1,0.1c-0.5,0.3-1.2,0.6-2.1,0.6c-1,0-1.6-0.6-1.7-1.5h4.4v-0.1
		C149.9,88.5,148.9,87.3,146.8,87.3z M145.5,90c0.1-0.9,0.6-1.4,1.4-1.4c1,0,1.2,0.8,1.3,1.4H145.5z M153.3,90c-0.6-0.2-1-0.3-1-0.7
		c0-0.6,0.7-0.6,0.9-0.6c0.6,0,0.9,0.1,1.5,0.3l0.1,0l0.1-1.4l-0.2,0c-0.5-0.1-1-0.2-1.7-0.2c-1.2,0-2.6,0.5-2.6,2.1
		c0,1.4,1,1.7,1.8,1.9c0.6,0.2,1.1,0.3,1.1,0.8c0,0.7-0.9,0.7-1,0.7c-0.5,0-1-0.1-1.6-0.4l-0.1-0.1l-0.1,1.6l0.1,0
		c0.7,0.2,1.3,0.3,1.9,0.3c1.3,0,2.7-0.6,2.7-2.2C155.3,90.6,154.2,90.2,153.3,90z"/>
</g>
</svg>
