<?xml version="1.0" encoding="UTF-8"?><svg id="Layer_1" xmlns="http://www.w3.org/2000/svg" viewBox="0 0 149.54 59.03"><defs><style>.cls-1{fill:#0061ad;}.cls-2{fill:#fbb801;}</style></defs><rect class="cls-2" width="149.54" height="59.03"/><path class="cls-1" d="m21.73,9.35h106.06c1.39,0,2.73.52,3.72,1.44.99.92,1.54,2.17,1.54,3.47v31.26c0,.64-.14,1.28-.4,1.88-.26.6-.65,1.14-1.14,1.59-.49.46-1.07.82-1.7,1.06-.64.25-1.32.37-2.01.37H21.73c-.69,0-1.37-.13-2.01-.37-.64-.25-1.22-.61-1.7-1.06-.49-.46-.87-1-1.14-1.59-.26-.6-.4-1.23-.4-1.88V14.26c0-.64.14-1.28.4-1.88.26-.6.65-1.14,1.14-1.59.49-.46,1.07-.82,1.7-1.06.64-.25,1.32-.37,2.01-.37"/><path class="cls-2" d="m22.51,10.88c-1.17,0-2.28.43-3.11,1.2-.82.77-1.29,1.81-1.29,2.9v29.8c0,1.09.47,2.13,1.29,2.9.82.77,1.94,1.2,3.11,1.2h104.5c1.17,0,2.28-.43,3.11-1.2.82-.77,1.29-1.81,1.29-2.9V14.99c0-1.09-.46-2.13-1.29-2.9-.82-.77-1.94-1.2-3.11-1.2H22.51Zm-2.93,33.9V14.99c0-.73.31-1.42.86-1.93.55-.51,1.29-.8,2.07-.8h104.5c.78,0,1.52.29,2.07.8s.86,1.21.86,1.93v29.8c0,.73-.31,1.42-.86,1.93-.55.51-1.29.8-2.07.8H22.51c-.78,0-1.52-.29-2.07-.8-.55-.51-.86-1.21-.86-1.94Z"/><path class="cls-2" d="m43.45,39.74v-16.35l-3.78-3.48h-9.14l-3.78,3.48v16.2l3.8,3.62h9.13l3.76-3.46Zm-.61-.33l-3.5,3.2h-8.48l-3.5-3.2v-15.74l3.35-3.2h8.77l3.35,3.2v15.74Zm-.57-.21v-15.2l-3.13-2.96h-8.07l-3.13,2.96v15.17l3.12,2.91h8.11l3.12-2.88Zm-4.28-1.02h-5.71v-13.29h5.71v13.29Zm-.61-12.72h-4.53v12.16h4.53v-12.16Zm-.57,11.62h-3.36v-11.06h3.36v11.06Z"/><path class="cls-2" d="m62.08,43.18v-23.28h-6.74v7.89h-3.28v-7.89h-6.7v23.28h6.7v-9.3h3.28v9.3h6.74Zm-.61-.57h-5.53v-9.3h-4.46v9.3h-5.53v-22.14h5.53v7.85h4.46v-7.85h5.53v22.14Zm-.61-.53v-21.04h-4.35v7.85h-5.63v-7.85h-4.35v21.04h4.35v-9.3h5.63v9.3h4.35Z"/><path class="cls-2" d="m76.81,43.2v-6.12h-5.97v-17.18s-6.71,0-6.71,0l.04,23.3h12.64Zm-.61-.58h-11.42v-22.14h5.49v17.15h5.93v4.99Zm-.57-.53v-3.9h-5.97v-17.15h-4.31v21.04h10.28Z"/><path class="cls-2" d="m85.36,19.91h-6.74v23.28h6.74v-23.28Zm-.57,22.71h-5.56v-22.14h5.56v22.14Zm-.61-21.57h-4.39v21.04h4.39v-21.04Z"/><path class="cls-2" d="m104.53,43.15l-.02-23.25h-6.48v7.65l-2.84-7.65h-7.74l.02,23.25h6.52l-.02-8.09,2.79,8.09h7.78Zm-.63-.55h-6.67l-3.87-10.97v10.97s-5.3,0-5.3,0v-22.13s6.63,0,6.63,0l3.94,10.54v-10.54h5.27v22.13Zm-.57-.53v-21.03h-4.09v13.27l-5.01-13.27h-5.61v21.03h4.17v-13.91s4.9,13.91,4.9,13.91h5.64Z"/><path class="cls-2" d="m123.39,39.74v-7.99l-3.69-3.44h-6.34v-2.28h3.28v1.83h6.74v-4.47l-3.65-3.48h-9.39s-3.66,3.44-3.66,3.44v7.61l3.71,3.42,6.24.02v2.69h-3.28v-1.93h-6.67v4.58l3.71,3.46,9.3-.02,3.69-3.44Zm-.61-.33l-3.43,3.2h-8.7l-3.39-3.2v-3.72h5.49v1.93h4.5v-3.79h-6.52l-3.46-3.2v-6.96l3.46-3.2h8.66l3.39,3.2v3.62h-5.53v-1.83h-4.5v3.37h6.6l3.43,3.24v7.34Zm-.61-.33v-6.72l-3.17-2.96h-6.82v-4.51h5.67v1.86h4.31v-2.76l-3.13-2.96h-7.96l-3.21,2.96v6.3l3.21,2.99h6.78v4.89h-5.67v-1.93h-4.31v2.83l3.21,3.02,7.92-.02,3.17-3Z"/><path class="cls-2" d="m41.99,14.09h-6.18v4.86h6.18v-4.86Zm-7.71,0h-6.17v4.86h6.17v-4.86Zm7.1,4.36h-4.95v-3.86h4.95v3.86Zm-7.71,0h-4.95v-3.86h4.95v3.86Zm7.1-3.38h-3.77v2.88h3.77v-2.88Zm-7.67,0h-3.77v2.88h3.77v-2.88Z"/><path class="cls-2" d="m122.02,19.26c0,.4.13.8.37,1.13.24.34.58.6.98.75.4.15.84.2,1.26.12.42-.08.81-.27,1.12-.56.31-.29.51-.65.6-1.05.08-.4.04-.81-.12-1.18-.17-.37-.44-.69-.8-.92-.36-.22-.78-.34-1.21-.34-.58,0-1.14.22-1.54.6-.41.38-.64.9-.64,1.44Zm.49,0c0-.31.1-.62.29-.88.19-.26.45-.46.76-.58.31-.12.65-.15.98-.09.33.06.63.21.87.43s.4.5.47.81c.06.31.03.63-.1.92-.13.29-.35.54-.62.71-.28.17-.61.27-.94.27-.45,0-.88-.17-1.2-.46-.32-.3-.5-.7-.5-1.12Z"/><path class="cls-2" d="m124.6,19.33c.14-.01.27-.08.36-.18s.14-.23.14-.36c0-.41-.36-.63-.84-.63h-.9s.02,1.98.02,1.98h.56s0-.77,0-.77h0l.6.77h.73s-.68-.82-.68-.82Zm-.68-.75c.27,0,.63-.02.63.23s-.35.21-.63.21v-.43Z"/></svg>